<svg xmlns="http://www.w3.org/2000/svg" viewBox="0 0 192 192">
  <rect width="192" height="192" rx="42" fill="#7a4f2b"/>
  <circle cx="96" cy="96" r="70" fill="#fff4e4"/>
  <path d="M62 124c7-28 24-51 55-61 13-4 26 2 31 13l8 18-15 2-8-10-6 18c-5 15-20 29-41 34l-10 23H58l12-28c-5-1-8-4-8-9z" fill="#503018"/>
  <path d="M86 89c-13 3-23 12-29 24" stroke="#fff4e4" stroke-width="8" stroke-linecap="round"/>
  <circle cx="131" cy="77" r="4" fill="#fff4e4"/>
  <path d="M44 50h32M34 70h31M34 90h23" stroke="#d8b58d" stroke-width="8" stroke-linecap="round"/>
</svg>
